<svg width="117" height="42" viewBox="0 0 117 42" fill="none" xmlns="http://www.w3.org/2000/svg">
<path d="M20.0864 32.2027L20.5902 30.4084C21.8157 26.043 25.2271 22.6316 29.5925 21.4061L31.3867 20.9023L29.5925 20.3986C25.2271 19.1731 21.8157 15.7616 20.5902 11.3963L20.0864 9.60204L19.5827 11.3963C18.3572 15.7616 14.9457 19.1731 10.5804 20.3986L8.78611 20.9023L10.5804 21.4061C14.9457 22.6316 18.3572 26.043 19.5827 30.4084L20.0864 32.2027Z" fill="#E0E0E0" stroke="#E0E0E0" stroke-width="2"/>
<path d="M55.5788 27.0273H51.7548V15.4593H55.5148C58.9708 15.4593 61.3068 17.7953 61.3068 21.2513C61.3068 24.6913 59.0028 27.0273 55.5788 27.0273ZM55.4028 16.8993H53.3228V25.5713H55.4668C58.0428 25.5713 59.6748 23.9073 59.6748 21.2513C59.6748 18.5633 58.0428 16.8993 55.4028 16.8993ZM64.2617 17.3473C63.7177 17.3473 63.2697 16.8993 63.2697 16.3553C63.2697 15.7953 63.7177 15.3633 64.2617 15.3633C64.8057 15.3633 65.2537 15.7953 65.2537 16.3553C65.2537 16.8993 64.8057 17.3473 64.2617 17.3473ZM63.5257 27.0273V19.2033H65.0297V27.0273H63.5257ZM67.0532 24.7553H68.4932C68.4932 25.5553 69.1012 26.0353 70.0932 26.0353C71.1492 26.0353 71.7572 25.6033 71.7572 24.8833C71.7572 24.3553 71.5012 24.0353 70.6852 23.8273L69.3092 23.5073C67.9172 23.1713 67.2612 22.4833 67.2612 21.3313C67.2612 19.8913 68.4772 18.9793 70.2052 18.9793C71.9172 18.9793 73.0372 19.9393 73.0692 21.4273H71.6292C71.5972 20.6433 71.0692 20.1473 70.1572 20.1473C69.2132 20.1473 68.6852 20.5633 68.6852 21.2833C68.6852 21.8113 69.0692 22.1633 69.8372 22.3553L71.2132 22.6913C72.5412 23.0113 73.1972 23.6193 73.1972 24.7873C73.1972 26.2753 71.9172 27.2193 70.0612 27.2193C68.2212 27.2193 67.0532 26.2433 67.0532 24.7553ZM74.8331 23.1233C74.8331 20.6753 76.3851 18.9793 78.6731 18.9793C80.6411 18.9793 82.0171 20.0993 82.2891 21.8433H80.7851C80.5291 20.8513 79.7291 20.3233 78.7211 20.3233C77.2971 20.3233 76.3211 21.4113 76.3211 23.1073C76.3211 24.7873 77.2331 25.8753 78.6571 25.8753C79.7291 25.8753 80.5291 25.3153 80.8011 24.3873H82.3051C82.0011 26.0833 80.5451 27.2193 78.6571 27.2193C76.3531 27.2193 74.8331 25.5873 74.8331 23.1233ZM83.86 23.1073C83.86 20.6913 85.588 18.9953 87.94 18.9953C90.276 18.9953 92.004 20.6913 92.004 23.1073C92.004 25.5233 90.276 27.2193 87.94 27.2193C85.588 27.2193 83.86 25.5233 83.86 23.1073ZM85.38 23.1073C85.38 24.7393 86.42 25.8753 87.94 25.8753C89.444 25.8753 90.5 24.7393 90.5 23.1073C90.5 21.4753 89.444 20.3393 87.94 20.3393C86.42 20.3393 85.38 21.4753 85.38 23.1073ZM95.9815 27.0273L92.8295 19.2033H94.4295L96.1415 23.5713C96.4135 24.3073 96.6375 24.9633 96.7655 25.4433C96.8935 24.9313 97.1495 24.2593 97.4215 23.5713L99.1655 19.2033H100.733L97.4695 27.0273H95.9815ZM105.427 27.2193C103.123 27.2193 101.539 25.5553 101.539 23.1233C101.539 20.6753 103.091 18.9793 105.363 18.9793C107.587 18.9793 109.043 20.5153 109.043 22.8353V23.3953L102.995 23.4113C103.107 25.0593 103.971 25.9713 105.459 25.9713C106.627 25.9713 107.395 25.4913 107.651 24.5953H109.059C108.675 26.2753 107.363 27.2193 105.427 27.2193ZM105.363 20.2433C104.051 20.2433 103.219 21.0273 103.027 22.4033H107.539C107.539 21.1073 106.691 20.2433 105.363 20.2433ZM115.683 19.1393V20.5153H115.011C113.587 20.5153 112.707 21.3793 112.707 22.8833V27.0273H111.203V19.2193H112.611L112.707 20.4033C113.027 19.5873 113.811 19.0433 114.883 19.0433C115.155 19.0433 115.379 19.0753 115.683 19.1393Z" fill="#E0E0E0"/>
</svg>
