<svg width="115" height="41" viewBox="0 0 115 41" fill="none" xmlns="http://www.w3.org/2000/svg">
<path d="M20.0864 31.3823L20.5902 29.5881C21.8157 25.2227 25.2271 21.8113 29.5925 20.5858L31.3867 20.082L29.5925 19.5783C25.2271 18.3528 21.8157 14.9413 20.5902 10.576L20.0864 8.78172L19.5827 10.576C18.3572 14.9413 14.9457 18.3528 10.5804 19.5783L8.78611 20.082L10.5804 20.5858C14.9457 21.8113 18.3572 25.2227 19.5827 29.5881L20.0864 31.3823Z" stroke="#898989" stroke-width="2"/>
<path d="M55.2908 26.2051H51.8028V14.7491H55.2588C58.7148 14.7491 61.0188 17.0531 61.0188 20.4771C61.0188 23.9011 58.7308 26.2051 55.2908 26.2051ZM55.2108 15.8051H52.9548V25.1491H55.2428C58.0428 25.1491 59.8348 23.3251 59.8348 20.4771C59.8348 17.6131 58.0428 15.8051 55.2108 15.8051ZM63.8837 16.3331C63.4357 16.3331 63.0677 15.9651 63.0677 15.5171C63.0677 15.0691 63.4357 14.6851 63.8837 14.6851C64.3317 14.6851 64.7157 15.0691 64.7157 15.5171C64.7157 15.9651 64.3317 16.3331 63.8837 16.3331ZM63.3397 26.2051V18.4611H64.4437V26.2051H63.3397ZM66.57 24.0291H67.626C67.626 24.9251 68.298 25.4851 69.386 25.4851C70.586 25.4851 71.29 24.9731 71.29 24.1411C71.29 23.5011 70.97 23.1331 70.058 22.9091L68.73 22.5731C67.386 22.2371 66.73 21.5331 66.73 20.4771C66.73 19.1171 67.866 18.2531 69.53 18.2531C71.162 18.2531 72.218 19.1491 72.266 20.5891H71.194C71.162 19.6931 70.538 19.1651 69.498 19.1651C68.41 19.1651 67.802 19.6291 67.802 20.4611C67.802 21.0531 68.218 21.4691 69.066 21.6771L70.394 22.0131C71.738 22.3491 72.346 22.9731 72.346 24.0931C72.346 25.4851 71.162 26.3971 69.402 26.3971C67.658 26.3971 66.57 25.4691 66.57 24.0291ZM74.0995 22.3491C74.0995 19.9171 75.5875 18.2531 77.8435 18.2531C79.6355 18.2531 80.9475 19.2931 81.2515 20.8931H80.1475C79.8595 19.8211 78.9315 19.2291 77.8595 19.2291C76.2915 19.2291 75.1875 20.4291 75.1875 22.3331C75.1875 24.1731 76.2115 25.4051 77.7795 25.4051C78.9315 25.4051 79.8595 24.7651 80.1635 23.7731H81.2835C80.9155 25.3571 79.5395 26.3971 77.7795 26.3971C75.5875 26.3971 74.0995 24.7811 74.0995 22.3491ZM82.892 22.3331C82.892 19.9651 84.556 18.2531 86.828 18.2531C89.1 18.2531 90.764 19.9651 90.764 22.3331C90.764 24.6851 89.1 26.3971 86.828 26.3971C84.556 26.3971 82.892 24.6851 82.892 22.3331ZM84.012 22.3171C84.012 24.1411 85.164 25.4051 86.828 25.4051C88.476 25.4051 89.644 24.1411 89.644 22.3171C89.644 20.5251 88.476 19.2451 86.828 19.2451C85.164 19.2451 84.012 20.5251 84.012 22.3171ZM94.826 26.2051L91.658 18.4611H92.842L94.842 23.4531C95.05 24.0131 95.258 24.5411 95.402 25.0531C95.546 24.5251 95.754 24.0131 95.978 23.4531L98.01 18.4611H99.146L95.93 26.2051H94.826ZM103.831 26.3971C101.559 26.3971 100.039 24.7651 100.039 22.3331C100.039 19.9171 101.543 18.2531 103.751 18.2531C105.847 18.2531 107.271 19.7411 107.271 21.9331V22.4771H101.111C101.191 24.3651 102.183 25.4531 103.847 25.4531C105.111 25.4531 105.927 24.9091 106.215 23.8851H107.271C106.855 25.5171 105.655 26.3971 103.831 26.3971ZM103.751 19.1971C102.295 19.1971 101.335 20.1571 101.143 21.6771H106.167C106.167 20.1891 105.207 19.1971 103.751 19.1971ZM113.565 18.3651V19.3571H112.957C111.533 19.3571 110.621 20.3171 110.621 21.7891V26.2051H109.517V18.4611H110.557L110.637 19.6611C110.941 18.8291 111.757 18.2851 112.845 18.2851C113.085 18.2851 113.293 18.3011 113.565 18.3651Z" fill="#898989"/>
</svg>
