<svg width="96" height="42" viewBox="0 0 96 42" fill="none" xmlns="http://www.w3.org/2000/svg">
<path d="M10.1027 20.2552V27.7636C10.1027 28.6935 10.8565 29.4474 11.7865 29.4474H15.154C15.7202 29.4761 16.195 29.0248 16.195 28.4579V23.5505C16.195 22.6248 16.9422 21.8727 17.8679 21.8667L22.6554 21.8358C23.5896 21.8297 24.3501 22.5853 24.3501 23.5195V28.5407C24.3501 29.0415 24.756 29.4474 25.2567 29.4474H28.6243C29.5542 29.4474 30.3081 28.6935 30.3081 27.7636V20.2552C30.3081 19.7599 30.09 19.2897 29.7119 18.9698L21.293 11.8461C20.6652 11.3149 19.7456 11.3149 19.1178 11.8461L10.6988 18.9698C10.3208 19.2897 10.1027 19.7599 10.1027 20.2552Z" fill="#E0E0E0" stroke="#E0E0E0" stroke-width="2.3573" stroke-linecap="round" stroke-linejoin="round"/>
<path d="M53.3228 27.0273H51.7548V15.4593H53.3228V20.4353H59.0508V15.4593H60.6188V27.0273H59.0508V21.8913H53.3228V27.0273ZM63.0137 23.1073C63.0137 20.6913 64.7417 18.9953 67.0937 18.9953C69.4297 18.9953 71.1577 20.6913 71.1577 23.1073C71.1577 25.5233 69.4297 27.2193 67.0937 27.2193C64.7417 27.2193 63.0137 25.5233 63.0137 23.1073ZM64.5337 23.1073C64.5337 24.7393 65.5737 25.8753 67.0937 25.8753C68.5977 25.8753 69.6537 24.7393 69.6537 23.1073C69.6537 21.4753 68.5977 20.3393 67.0937 20.3393C65.5737 20.3393 64.5337 21.4753 64.5337 23.1073ZM74.8066 27.0273H73.3026V19.2033H74.6466L74.7906 20.2273C75.1906 19.4913 76.0226 18.9793 77.1266 18.9793C78.3426 18.9793 79.2066 19.5873 79.6066 20.5633C79.9746 19.5873 80.9186 18.9793 82.1346 18.9793C83.9266 18.9793 85.0146 20.0993 85.0146 21.9073V27.0273H83.5426V22.2753C83.5426 21.0433 82.8546 20.3393 81.7986 20.3393C80.6626 20.3393 79.9106 21.1393 79.9106 22.3873V27.0273H78.4226V22.2593C78.4226 21.0273 77.7506 20.3553 76.6946 20.3553C75.5586 20.3553 74.8066 21.1393 74.8066 22.3873V27.0273ZM90.9554 27.2193C88.6514 27.2193 87.0674 25.5553 87.0674 23.1233C87.0674 20.6753 88.6194 18.9793 90.8914 18.9793C93.1154 18.9793 94.5714 20.5153 94.5714 22.8353V23.3953L88.5234 23.4113C88.6354 25.0593 89.4994 25.9713 90.9874 25.9713C92.1554 25.9713 92.9234 25.4913 93.1794 24.5953H94.5874C94.2034 26.2753 92.8914 27.2193 90.9554 27.2193ZM90.8914 20.2433C89.5794 20.2433 88.7474 21.0273 88.5554 22.4033H93.0674C93.0674 21.1073 92.2194 20.2433 90.8914 20.2433Z" fill="#E0E0E0"/>
</svg>
