<svg width="95" height="41" viewBox="0 0 95 41" fill="none" xmlns="http://www.w3.org/2000/svg">
<path d="M25.2567 28.6251H28.6243C29.5542 28.6251 30.308 27.8713 30.308 26.9414V19.4329C30.308 18.9376 30.09 18.4674 29.7119 18.1475L21.293 11.0238C20.6652 10.4926 19.7455 10.4926 19.1177 11.0238L10.6988 18.1475C10.3207 18.4674 10.1026 18.9376 10.1026 19.4329V26.9414C10.1026 27.8713 10.8565 28.6251 11.7864 28.6251H15.154" stroke="#898989" stroke-width="2.3573" stroke-linecap="round" stroke-linejoin="round"/>
<path d="M52.9548 26.2051H51.8028V14.7491H52.9548V19.8531H59.1468V14.7491H60.2828V26.2051H59.1468V20.9251H52.9548V26.2051ZM62.7801 22.3331C62.7801 19.9651 64.4441 18.2531 66.7161 18.2531C68.9881 18.2531 70.6521 19.9651 70.6521 22.3331C70.6521 24.6851 68.9881 26.3971 66.7161 26.3971C64.4441 26.3971 62.7801 24.6851 62.7801 22.3331ZM63.9001 22.3171C63.9001 24.1411 65.0521 25.4051 66.7161 25.4051C68.3641 25.4051 69.5321 24.1411 69.5321 22.3171C69.5321 20.5251 68.3641 19.2451 66.7161 19.2451C65.0521 19.2451 63.9001 20.5251 63.9001 22.3171ZM74.0018 26.2051H72.8978V18.4611H73.8578L73.9858 19.5651C74.3698 18.7491 75.2338 18.2531 76.3218 18.2531C77.5378 18.2531 78.4498 18.8931 78.8178 19.9011C79.1698 18.8931 80.1138 18.2531 81.3618 18.2531C83.0418 18.2531 84.1458 19.3411 84.1458 21.1331V26.2051H83.0738V21.3571C83.0738 20.0291 82.3378 19.2451 81.1538 19.2451C79.8578 19.2451 79.0898 20.2211 79.0898 21.4211V26.2051H78.0018V21.3411C78.0018 20.0291 77.2498 19.2611 76.0818 19.2611C74.7858 19.2611 74.0018 20.2211 74.0018 21.4051V26.2051ZM90.0946 26.3971C87.8226 26.3971 86.3026 24.7651 86.3026 22.3331C86.3026 19.9171 87.8066 18.2531 90.0146 18.2531C92.1106 18.2531 93.5346 19.7411 93.5346 21.9331V22.4771H87.3746C87.4546 24.3651 88.4466 25.4531 90.1106 25.4531C91.3746 25.4531 92.1906 24.9091 92.4786 23.8851H93.5346C93.1186 25.5171 91.9186 26.3971 90.0946 26.3971ZM90.0146 19.1971C88.5586 19.1971 87.5986 20.1571 87.4066 21.6771H92.4306C92.4306 20.1891 91.4706 19.1971 90.0146 19.1971Z" fill="#898989"/>
</svg>
