<svg width="129" height="41" viewBox="0 0 129 41" fill="none" xmlns="http://www.w3.org/2000/svg">
<path d="M11.562 11.5625V28.8493" stroke="#898989" stroke-width="2.02054" stroke-linecap="round" stroke-linejoin="round"/>
<path d="M17.3243 11.5625V28.8493" stroke="#898989" stroke-width="2.02054" stroke-linecap="round" stroke-linejoin="round"/>
<path d="M23.0865 28.8493V11.5625L28.8488 15.5518V28.8493H23.0865Z" stroke="#898989" stroke-width="2.02054" stroke-linecap="round" stroke-linejoin="round"/>
<path d="M52.9388 26.2051H51.8028V14.7491H52.9388L57.1148 24.8451L61.2908 14.7491H62.4428V26.2051H61.3068V20.7651C61.3068 18.7651 61.3388 17.8851 61.4028 17.1011L57.6748 26.2051H56.5708L52.8428 17.1491C52.9068 17.5811 52.9388 18.8451 52.9388 20.5891V26.2051ZM64.6807 29.5811V28.6691H65.5287C66.2007 28.6691 66.8727 28.6211 67.2567 27.5811L67.5927 26.6691L64.4567 18.4611H65.6247L68.1207 25.2131L70.5687 18.4611H71.7047L68.1527 27.9811C67.7047 29.1971 66.9527 29.6931 65.8487 29.6931C65.3847 29.6931 65.0327 29.6611 64.6807 29.5811ZM79.7855 14.7491V25.1491H85.0495V26.2051H78.6335V14.7491H79.7855ZM87.5581 16.3331C87.1101 16.3331 86.7421 15.9651 86.7421 15.5171C86.7421 15.0691 87.1101 14.6851 87.5581 14.6851C88.0061 14.6851 88.3901 15.0691 88.3901 15.5171C88.3901 15.9651 88.0061 16.3331 87.5581 16.3331ZM87.0141 26.2051V18.4611H88.1181V26.2051H87.0141ZM91.8603 26.2051H90.9003V14.5411H92.0043V19.9651C92.5483 18.8291 93.6043 18.2531 94.9163 18.2531C97.1723 18.2531 98.4843 20.0131 98.4843 22.3491C98.4843 24.6691 97.1403 26.3971 94.8843 26.3971C93.5883 26.3971 92.5163 25.8211 91.9723 24.6211L91.8603 26.2051ZM92.0203 22.3171C92.0203 24.1091 93.0123 25.3891 94.7083 25.3891C96.3883 25.3891 97.3643 24.1091 97.3643 22.3171C97.3643 20.5411 96.3883 19.2451 94.7083 19.2451C93.0123 19.2451 92.0203 20.5411 92.0203 22.3171ZM104.772 18.3651V19.3571H104.164C102.74 19.3571 101.828 20.3171 101.828 21.7891V26.2051H100.724V18.4611H101.764L101.844 19.6611C102.148 18.8291 102.964 18.2851 104.052 18.2851C104.292 18.2851 104.5 18.3011 104.772 18.3651ZM108.631 26.3971C106.983 26.3971 106.007 25.4691 106.007 24.1091C106.007 22.6851 107.095 21.7891 108.903 21.6451L111.463 21.4371V21.1811C111.463 19.6611 110.551 19.1811 109.415 19.1811C108.071 19.1811 107.271 19.7891 107.271 20.8291H106.263C106.263 19.2611 107.543 18.2531 109.447 18.2531C111.239 18.2531 112.551 19.1491 112.551 21.1971V26.2051H111.623L111.479 24.8451C110.999 25.8211 109.943 26.3971 108.631 26.3971ZM108.887 25.5011C110.519 25.5011 111.463 24.3651 111.463 22.6851V22.2691L109.175 22.4451C107.719 22.5731 107.127 23.2131 107.127 24.0771C107.127 25.0211 107.831 25.5011 108.887 25.5011ZM119.295 18.3651V19.3571H118.687C117.263 19.3571 116.351 20.3171 116.351 21.7891V26.2051H115.247V18.4611H116.287L116.367 19.6611C116.671 18.8291 117.487 18.2851 118.575 18.2851C118.815 18.2851 119.023 18.3011 119.295 18.3651ZM120.693 29.5811V28.6691H121.541C122.213 28.6691 122.885 28.6211 123.269 27.5811L123.605 26.6691L120.469 18.4611H121.637L124.133 25.2131L126.581 18.4611H127.717L124.165 27.9811C123.717 29.1971 122.965 29.6931 121.861 29.6931C121.397 29.6931 121.045 29.6611 120.693 29.5811Z" fill="#898989"/>
</svg>
