<svg width="132" height="42" viewBox="0 0 132 42" fill="none" xmlns="http://www.w3.org/2000/svg">
<path d="M11.562 12.3848V29.6716" stroke="#E0E0E0" stroke-width="2.02054" stroke-linecap="round" stroke-linejoin="round"/>
<path d="M17.3243 12.3848V29.6716" stroke="#E0E0E0" stroke-width="2.02054" stroke-linecap="round" stroke-linejoin="round"/>
<path d="M23.0865 29.6716V12.3848L28.8488 16.374V29.6716H23.0865Z" fill="#E0E0E0" stroke="#E0E0E0" stroke-width="2.02054" stroke-linecap="round" stroke-linejoin="round"/>
<path d="M53.2908 27.0273H51.7548V15.4593H53.2908L57.2748 25.1873L61.2588 15.4593H62.8268V27.0273H61.2908V22.4513C61.2908 20.2913 61.3068 19.5073 61.3868 18.6913L58.0108 27.0273H56.5388L53.1788 18.7233C53.2588 19.2833 53.2908 20.4673 53.2908 22.0833V27.0273ZM64.9925 30.5313V29.2993H66.0005C66.7205 29.2993 67.2965 29.1873 67.6645 28.1953L67.9365 27.4433L64.7845 19.2033H66.3685L68.6405 25.5073L70.9605 19.2033H72.5125L68.8165 28.7873C68.2885 30.1313 67.5045 30.6913 66.3045 30.6913C65.8085 30.6913 65.3925 30.6273 64.9925 30.5313ZM80.8722 15.4593V25.5713H85.9602V27.0273H79.3042V15.4593H80.8722ZM88.6236 17.3473C88.0796 17.3473 87.6316 16.8993 87.6316 16.3553C87.6316 15.7953 88.0796 15.3633 88.6236 15.3633C89.1676 15.3633 89.6156 15.7953 89.6156 16.3553C89.6156 16.8993 89.1676 17.3473 88.6236 17.3473ZM87.8876 27.0273V19.2033H89.3916V27.0273H87.8876ZM93.4151 27.0273H92.0551V15.2513H93.5591V20.5473C94.0711 19.5233 95.1271 18.9793 96.4071 18.9793C98.6471 18.9793 99.9911 20.7393 99.9911 23.1553C99.9911 25.5233 98.5831 27.2193 96.3111 27.2193C95.0791 27.2193 94.0391 26.6753 93.5271 25.6033L93.4151 27.0273ZM93.5751 23.0913C93.5751 24.7233 94.5031 25.8593 96.0391 25.8593C97.5751 25.8593 98.4871 24.7073 98.4871 23.0913C98.4871 21.4913 97.5751 20.3393 96.0391 20.3393C94.5031 20.3393 93.5751 21.4913 93.5751 23.0913ZM106.609 19.1393V20.5153H105.937C104.513 20.5153 103.633 21.3793 103.633 22.8833V27.0273H102.129V19.2193H103.537L103.633 20.4033C103.953 19.5873 104.737 19.0433 105.809 19.0433C106.081 19.0433 106.305 19.0753 106.609 19.1393ZM110.475 27.2193C108.795 27.2193 107.803 26.2753 107.803 24.8513C107.803 23.4113 108.875 22.5153 110.715 22.3713L113.179 22.1793V21.9553C113.179 20.6433 112.395 20.1793 111.339 20.1793C110.075 20.1793 109.355 20.7393 109.355 21.6833H108.043C108.043 20.0513 109.387 18.9793 111.403 18.9793C113.339 18.9793 114.651 20.0033 114.651 22.1153V27.0273H113.371L113.211 25.7633C112.811 26.6593 111.739 27.2193 110.475 27.2193ZM110.907 26.0513C112.331 26.0513 113.195 25.1233 113.195 23.6513V23.2353L111.195 23.3953C109.867 23.5233 109.323 24.0353 109.323 24.8033C109.323 25.6353 109.931 26.0513 110.907 26.0513ZM121.694 19.1393V20.5153H121.022C119.598 20.5153 118.718 21.3793 118.718 22.8833V27.0273H117.214V19.2193H118.622L118.718 20.4033C119.038 19.5873 119.822 19.0433 120.894 19.0433C121.166 19.0433 121.39 19.0753 121.694 19.1393ZM123.067 30.5313V29.2993H124.075C124.795 29.2993 125.371 29.1873 125.739 28.1953L126.011 27.4433L122.859 19.2033H124.443L126.715 25.5073L129.035 19.2033H130.587L126.891 28.7873C126.363 30.1313 125.579 30.6913 124.379 30.6913C123.883 30.6913 123.467 30.6273 123.067 30.5313Z" fill="#E0E0E0"/>
</svg>
