<svg width="139" height="41" viewBox="0 0 139 41" fill="none" xmlns="http://www.w3.org/2000/svg">
<path d="M22.0692 13.5685L20.2054 15.3745L18.3415 13.5685C16.3872 11.6749 13.252 11.7794 11.4282 13.7991C9.65841 15.7589 9.41476 18.6943 11.0173 20.793C11.2143 21.0509 11.4079 21.2979 11.5922 21.524C12.7586 22.9549 15.3036 25.4539 16.5788 26.7949C17.5209 27.7857 18.3677 28.6121 19.0057 29.214C19.6794 29.8496 20.7193 29.8357 21.3943 29.2014C22.5707 28.0961 24.3746 26.3743 25.6453 25.0379C26.9204 23.6969 27.6521 22.9549 28.8186 21.524C29.0028 21.2979 29.1965 21.0509 29.3934 20.793C30.996 18.6943 30.7523 15.7589 28.9826 13.7991C27.1587 11.7794 24.0236 11.6749 22.0692 13.5685Z" stroke="#898989" stroke-width="2.02054" stroke-linecap="round" stroke-linejoin="round"/>
<path d="M52.9548 14.7491V25.1491H58.2188V26.2051H51.8028V14.7491H52.9548ZM60.7275 16.3331C60.2795 16.3331 59.9115 15.9651 59.9115 15.5171C59.9115 15.0691 60.2795 14.6851 60.7275 14.6851C61.1755 14.6851 61.5595 15.0691 61.5595 15.5171C61.5595 15.9651 61.1755 16.3331 60.7275 16.3331ZM60.1835 26.2051V18.4611H61.2875V26.2051H60.1835ZM65.2217 26.2051H64.1177V14.5411H65.2217V22.4611L69.0617 18.4611H70.4537L67.4777 21.5491L70.4697 26.2051H69.1897L66.7257 22.3331L65.2217 23.8851V26.2051ZM75.2508 26.3971C72.9788 26.3971 71.4588 24.7651 71.4588 22.3331C71.4588 19.9171 72.9628 18.2531 75.1708 18.2531C77.2668 18.2531 78.6908 19.7411 78.6908 21.9331V22.4771H72.5308C72.6108 24.3651 73.6028 25.4531 75.2668 25.4531C76.5308 25.4531 77.3468 24.9091 77.6348 23.8851H78.6908C78.2748 25.5171 77.0748 26.3971 75.2508 26.3971ZM75.1708 19.1971C73.7148 19.1971 72.7548 20.1571 72.5628 21.6771H77.5868C77.5868 20.1891 76.6268 19.1971 75.1708 19.1971ZM83.976 26.3971C81.72 26.3971 80.392 24.6691 80.392 22.3491C80.392 20.0131 81.72 18.2531 84.024 18.2531C85.304 18.2531 86.328 18.8131 86.872 19.9331V14.5411H87.976V26.2051H87.016L86.904 24.6211C86.36 25.8211 85.272 26.3971 83.976 26.3971ZM84.168 25.3891C85.864 25.3891 86.856 24.1091 86.856 22.3171C86.856 20.5411 85.864 19.2451 84.168 19.2451C82.488 19.2451 81.512 20.5411 81.512 22.3171C81.512 24.1091 82.488 25.3891 84.168 25.3891ZM95.0212 24.0291H96.0772C96.0772 24.9251 96.7492 25.4851 97.8372 25.4851C99.0372 25.4851 99.7412 24.9731 99.7412 24.1411C99.7412 23.5011 99.4212 23.1331 98.5092 22.9091L97.1812 22.5731C95.8372 22.2371 95.1812 21.5331 95.1812 20.4771C95.1812 19.1171 96.3172 18.2531 97.9812 18.2531C99.6132 18.2531 100.669 19.1491 100.717 20.5891H99.6452C99.6132 19.6931 98.9892 19.1651 97.9492 19.1651C96.8612 19.1651 96.2532 19.6291 96.2532 20.4611C96.2532 21.0531 96.6692 21.4691 97.5172 21.6771L98.8452 22.0131C100.189 22.3491 100.797 22.9731 100.797 24.0931C100.797 25.4851 99.6132 26.3971 97.8532 26.3971C96.1092 26.3971 95.0212 25.4691 95.0212 24.0291ZM102.551 22.3331C102.551 19.9651 104.215 18.2531 106.487 18.2531C108.759 18.2531 110.423 19.9651 110.423 22.3331C110.423 24.6851 108.759 26.3971 106.487 26.3971C104.215 26.3971 102.551 24.6851 102.551 22.3331ZM103.671 22.3171C103.671 24.1411 104.823 25.4051 106.487 25.4051C108.135 25.4051 109.303 24.1411 109.303 22.3171C109.303 20.5251 108.135 19.2451 106.487 19.2451C104.823 19.2451 103.671 20.5251 103.671 22.3171ZM113.772 26.2051H112.668V18.4611H113.628L113.788 19.8051C114.3 18.8131 115.324 18.2531 116.444 18.2531C118.572 18.2531 119.452 19.5171 119.452 21.4691V26.2051H118.348V21.7091C118.348 19.9011 117.532 19.2611 116.252 19.2611C114.668 19.2611 113.772 20.4131 113.772 22.1571V26.2051ZM121.605 22.1091C121.605 19.9971 122.965 18.2531 125.237 18.2531C126.581 18.2531 127.605 18.8771 128.101 20.0131L128.213 18.4611H129.173V25.9651C129.173 28.2691 127.701 29.7731 125.429 29.7731C123.445 29.7731 122.053 28.6531 121.749 26.7811H122.853C123.093 28.0291 124.053 28.7651 125.445 28.7651C127.029 28.7651 128.085 27.6931 128.085 26.0771V24.2371C127.557 25.3251 126.485 25.9651 125.157 25.9651C122.949 25.9651 121.605 24.2211 121.605 22.1091ZM122.709 22.0931C122.709 23.6771 123.685 24.9731 125.317 24.9731C126.997 24.9731 127.989 23.7571 127.989 22.0931C127.989 20.4451 127.029 19.2291 125.333 19.2291C123.669 19.2291 122.709 20.5251 122.709 22.0931ZM131.301 24.0291H132.357C132.357 24.9251 133.029 25.4851 134.117 25.4851C135.317 25.4851 136.021 24.9731 136.021 24.1411C136.021 23.5011 135.701 23.1331 134.789 22.9091L133.461 22.5731C132.117 22.2371 131.461 21.5331 131.461 20.4771C131.461 19.1171 132.597 18.2531 134.261 18.2531C135.893 18.2531 136.949 19.1491 136.997 20.5891H135.925C135.893 19.6931 135.269 19.1651 134.229 19.1651C133.141 19.1651 132.533 19.6291 132.533 20.4611C132.533 21.0531 132.949 21.4691 133.797 21.6771L135.125 22.0131C136.469 22.3491 137.077 22.9731 137.077 24.0931C137.077 25.4851 135.893 26.3971 134.133 26.3971C132.389 26.3971 131.301 25.4691 131.301 24.0291Z" fill="#898989"/>
</svg>
