<svg width="141" height="42" viewBox="0 0 141 42" fill="none" xmlns="http://www.w3.org/2000/svg">
<path d="M22.0692 14.3908L20.2054 16.1968L18.3415 14.3908C16.3872 12.4971 13.252 12.6017 11.4282 14.6214C9.65841 16.5811 9.41476 19.5166 11.0173 21.6153C11.2143 21.8732 11.4079 22.1202 11.5922 22.3462C12.7586 23.7772 15.3036 26.2761 16.5788 27.6172C17.5209 28.608 18.3677 29.4343 19.0057 30.0362C19.6794 30.6718 20.7193 30.658 21.3943 30.0237C22.5707 28.9184 24.3746 27.1966 25.6453 25.8602C26.9204 24.5191 27.6521 23.7772 28.8186 22.3462C29.0028 22.1202 29.1965 21.8732 29.3934 21.6153C30.996 19.5166 30.7523 16.5811 28.9826 14.6214C27.1587 12.6017 24.0236 12.4971 22.0692 14.3908Z" fill="#E0E0E0" stroke="#E0E0E0" stroke-width="2.02054" stroke-linecap="round" stroke-linejoin="round"/>
<path d="M53.3228 15.4593V25.5713H58.4108V27.0273H51.7548V15.4593H53.3228ZM61.0742 17.3473C60.5302 17.3473 60.0822 16.8993 60.0822 16.3553C60.0822 15.7953 60.5302 15.3633 61.0742 15.3633C61.6182 15.3633 62.0662 15.7953 62.0662 16.3553C62.0662 16.8993 61.6182 17.3473 61.0742 17.3473ZM60.3382 27.0273V19.2033H61.8422V27.0273H60.3382ZM66.0417 27.0273H64.5377V15.2513H66.0417V22.8833L69.5137 19.2033H71.4017L68.4097 22.3233L71.3857 27.0273H69.6577L67.3697 23.4113L66.0417 24.8033V27.0273ZM76.1898 27.2193C73.8858 27.2193 72.3018 25.5553 72.3018 23.1233C72.3018 20.6753 73.8538 18.9793 76.1258 18.9793C78.3498 18.9793 79.8058 20.5153 79.8058 22.8353V23.3953L73.7578 23.4113C73.8698 25.0593 74.7338 25.9713 76.2218 25.9713C77.3898 25.9713 78.1578 25.4913 78.4138 24.5953H79.8218C79.4378 26.2753 78.1258 27.2193 76.1898 27.2193ZM76.1258 20.2433C74.8138 20.2433 73.9818 21.0273 73.7898 22.4033H78.3018C78.3018 21.1073 77.4538 20.2433 76.1258 20.2433ZM85.1017 27.2193C82.8297 27.2193 81.4537 25.5233 81.4537 23.1393C81.4537 20.7393 82.8457 18.9793 85.1657 18.9793C86.3657 18.9793 87.3737 19.5073 87.9017 20.4673V15.2513H89.3897V27.0273H88.0457L87.9177 25.6033C87.4057 26.6753 86.3497 27.2193 85.1017 27.2193ZM85.4057 25.8593C86.9417 25.8593 87.8857 24.7233 87.8857 23.0913C87.8857 21.4913 86.9417 20.3393 85.4057 20.3393C83.8697 20.3393 82.9737 21.4913 82.9737 23.0913C82.9737 24.7073 83.8697 25.8593 85.4057 25.8593ZM96.2545 24.7553H97.6945C97.6945 25.5553 98.3025 26.0353 99.2945 26.0353C100.35 26.0353 100.958 25.6033 100.958 24.8833C100.958 24.3553 100.702 24.0353 99.8865 23.8273L98.5105 23.5073C97.1185 23.1713 96.4625 22.4833 96.4625 21.3313C96.4625 19.8913 97.6785 18.9793 99.4065 18.9793C101.118 18.9793 102.238 19.9393 102.27 21.4273H100.83C100.798 20.6433 100.27 20.1473 99.3585 20.1473C98.4145 20.1473 97.8865 20.5633 97.8865 21.2833C97.8865 21.8113 98.2705 22.1633 99.0385 22.3553L100.414 22.6913C101.742 23.0113 102.398 23.6193 102.398 24.7873C102.398 26.2753 101.118 27.2193 99.2625 27.2193C97.4225 27.2193 96.2545 26.2433 96.2545 24.7553ZM104.034 23.1073C104.034 20.6913 105.762 18.9953 108.114 18.9953C110.45 18.9953 112.178 20.6913 112.178 23.1073C112.178 25.5233 110.45 27.2193 108.114 27.2193C105.762 27.2193 104.034 25.5233 104.034 23.1073ZM105.554 23.1073C105.554 24.7393 106.594 25.8753 108.114 25.8753C109.618 25.8753 110.674 24.7393 110.674 23.1073C110.674 21.4753 109.618 20.3393 108.114 20.3393C106.594 20.3393 105.554 21.4753 105.554 23.1073ZM115.827 27.0273H114.323V19.2033H115.683L115.843 20.4033C116.339 19.5073 117.331 18.9793 118.435 18.9793C120.499 18.9793 121.443 20.2433 121.443 22.2433V27.0273H119.939V22.5793C119.939 20.9953 119.203 20.3553 118.051 20.3553C116.643 20.3553 115.827 21.3633 115.827 22.8833V27.0273ZM123.51 22.9153C123.51 20.7073 124.934 18.9793 127.206 18.9793C128.47 18.9793 129.446 19.5553 129.942 20.5313L130.054 19.2033H131.398V26.7073C131.398 29.1713 129.878 30.7393 127.478 30.7393C125.35 30.7393 123.894 29.5393 123.606 27.5553H125.11C125.302 28.7073 126.166 29.3793 127.478 29.3793C128.95 29.3793 129.91 28.4193 129.91 26.9313V25.3633C129.398 26.2753 128.374 26.8193 127.142 26.8193C124.918 26.8193 123.51 25.1073 123.51 22.9153ZM125.014 22.8833C125.014 24.3553 125.926 25.5073 127.398 25.5073C128.918 25.5073 129.846 24.4193 129.846 22.8833C129.846 21.3793 128.95 20.2913 127.414 20.2913C125.91 20.2913 125.014 21.4433 125.014 22.8833ZM133.409 24.7553H134.849C134.849 25.5553 135.457 26.0353 136.449 26.0353C137.505 26.0353 138.113 25.6033 138.113 24.8833C138.113 24.3553 137.857 24.0353 137.041 23.8273L135.665 23.5073C134.273 23.1713 133.617 22.4833 133.617 21.3313C133.617 19.8913 134.833 18.9793 136.561 18.9793C138.273 18.9793 139.393 19.9393 139.425 21.4273H137.985C137.953 20.6433 137.425 20.1473 136.513 20.1473C135.569 20.1473 135.041 20.5633 135.041 21.2833C135.041 21.8113 135.425 22.1633 136.193 22.3553L137.569 22.6913C138.897 23.0113 139.553 23.6193 139.553 24.7873C139.553 26.2753 138.273 27.2193 136.417 27.2193C134.577 27.2193 133.409 26.2433 133.409 24.7553Z" fill="#E0E0E0"/>
</svg>
