<svg width="104" height="42" viewBox="0 0 104 42" fill="none" xmlns="http://www.w3.org/2000/svg">
<path d="M24.738 25.183C26.2756 23.6145 27.2237 21.466 27.2237 19.096C27.2237 14.2936 23.3305 10.4004 18.528 10.4004C13.7256 10.4004 9.8324 14.2936 9.8324 19.096C9.8324 23.8985 13.7256 27.7917 18.528 27.7917C20.9606 27.7917 23.1598 26.7929 24.738 25.183ZM24.738 25.183L29.8324 30.4004" stroke="#E0E0E0" stroke-width="2.02054" stroke-linecap="round"/>
<circle cx="18.5324" cy="19.1004" r="5.7" fill="#E0E0E0"/>
<path d="M51.0828 18.5793C51.0828 16.5953 52.6828 15.2513 55.0668 15.2513C57.2748 15.2513 58.6988 16.4833 58.8268 18.4833H57.2428C57.1628 17.3313 56.3468 16.6593 55.0508 16.6593C53.5948 16.6593 52.6508 17.3953 52.6508 18.5313C52.6508 19.4593 53.1788 20.0193 54.2668 20.2753L56.1708 20.7233C58.0588 21.1553 59.0188 22.1793 59.0188 23.8113C59.0188 25.8913 57.4028 27.2193 54.9388 27.2193C52.5868 27.2193 51.0188 25.9873 50.9228 24.0033H52.5228C52.5548 25.1073 53.4828 25.8113 54.9388 25.8113C56.4748 25.8113 57.4508 25.0913 57.4508 23.9393C57.4508 23.0273 56.9548 22.4513 55.8508 22.1953L53.9468 21.7633C52.0588 21.3313 51.0828 20.2433 51.0828 18.5793ZM64.5892 27.2193C62.2852 27.2193 60.7012 25.5553 60.7012 23.1233C60.7012 20.6753 62.2532 18.9793 64.5252 18.9793C66.7492 18.9793 68.2052 20.5153 68.2052 22.8353V23.3953L62.1572 23.4113C62.2692 25.0593 63.1332 25.9713 64.6212 25.9713C65.7892 25.9713 66.5572 25.4913 66.8132 24.5953H68.2212C67.8372 26.2753 66.5252 27.2193 64.5892 27.2193ZM64.5252 20.2433C63.2132 20.2433 62.3812 21.0273 62.1892 22.4033H66.7012C66.7012 21.1073 65.8532 20.2433 64.5252 20.2433ZM72.575 27.2193C70.895 27.2193 69.903 26.2753 69.903 24.8513C69.903 23.4113 70.975 22.5153 72.815 22.3713L75.279 22.1793V21.9553C75.279 20.6433 74.495 20.1793 73.439 20.1793C72.175 20.1793 71.455 20.7393 71.455 21.6833H70.143C70.143 20.0513 71.487 18.9793 73.503 18.9793C75.439 18.9793 76.751 20.0033 76.751 22.1153V27.0273H75.471L75.311 25.7633C74.911 26.6593 73.839 27.2193 72.575 27.2193ZM73.007 26.0513C74.431 26.0513 75.295 25.1233 75.295 23.6513V23.2353L73.295 23.3953C71.967 23.5233 71.423 24.0353 71.423 24.8033C71.423 25.6353 72.031 26.0513 73.007 26.0513ZM83.7938 19.1393V20.5153H83.1218C81.6978 20.5153 80.8178 21.3793 80.8178 22.8833V27.0273H79.3138V19.2193H80.7218L80.8178 20.4033C81.1378 19.5873 81.9218 19.0433 82.9938 19.0433C83.2658 19.0433 83.4898 19.0753 83.7938 19.1393ZM84.8912 23.1233C84.8912 20.6753 86.4432 18.9793 88.7312 18.9793C90.6992 18.9793 92.0752 20.0993 92.3472 21.8433H90.8432C90.5872 20.8513 89.7872 20.3233 88.7792 20.3233C87.3552 20.3233 86.3792 21.4113 86.3792 23.1073C86.3792 24.7873 87.2912 25.8753 88.7152 25.8753C89.7872 25.8753 90.5872 25.3153 90.8592 24.3873H92.3632C92.0592 26.0833 90.6032 27.2193 88.7152 27.2193C86.4112 27.2193 84.8912 25.5873 84.8912 23.1233ZM95.9341 27.0113H94.4301V15.2513H95.9341V20.4033C96.4301 19.5553 97.3741 18.9793 98.5901 18.9793C100.59 18.9793 101.55 20.2433 101.55 22.2433V27.0273H100.046V22.5793C100.046 20.9953 99.2941 20.3553 98.1741 20.3553C96.7181 20.3553 95.9341 21.4113 95.9341 22.7553V27.0113Z" fill="#E0E0E0"/>
</svg>
