<svg width="102" height="41" viewBox="0 0 102 41" fill="none" xmlns="http://www.w3.org/2000/svg">
<path d="M24.7356 24.3607C26.2732 22.7923 27.2213 20.6437 27.2213 18.2738C27.2213 13.4713 23.3281 9.57812 18.5256 9.57812C13.7232 9.57812 9.82999 13.4713 9.82999 18.2738C9.82999 23.0763 13.7232 26.9694 18.5256 26.9694C20.9582 26.9694 23.1574 25.9706 24.7356 24.3607ZM24.7356 24.3607L29.83 29.5781" stroke="#898989" stroke-width="2.02054" stroke-linecap="round"/>
<path d="M51.1148 17.7251C51.1148 15.8051 52.6508 14.5411 54.9548 14.5411C57.0188 14.5411 58.3788 15.6931 58.5548 17.6131H57.3868C57.2588 16.3171 56.3788 15.5811 54.9388 15.5811C53.3228 15.5811 52.2668 16.4131 52.2668 17.7091C52.2668 18.7171 52.8588 19.3571 54.0588 19.6611L56.0268 20.1411C57.8188 20.5731 58.7468 21.5971 58.7468 23.1491C58.7468 25.1331 57.2108 26.3971 54.8428 26.3971C52.6188 26.3971 51.1148 25.2291 50.9708 23.3571H52.1548C52.2188 24.5571 53.2748 25.3411 54.8428 25.3411C56.5228 25.3411 57.5948 24.5251 57.5948 23.2131C57.5948 22.1891 57.0188 21.5171 55.7868 21.2291L53.8508 20.7491C52.0588 20.3171 51.1148 19.2931 51.1148 17.7251ZM64.3065 26.3971C62.0345 26.3971 60.5145 24.7651 60.5145 22.3331C60.5145 19.9171 62.0185 18.2531 64.2265 18.2531C66.3225 18.2531 67.7465 19.7411 67.7465 21.9331V22.4771H61.5865C61.6665 24.3651 62.6585 25.4531 64.3225 25.4531C65.5865 25.4531 66.4025 24.9091 66.6905 23.8851H67.7465C67.3305 25.5171 66.1305 26.3971 64.3065 26.3971ZM64.2265 19.1971C62.7705 19.1971 61.8105 20.1571 61.6185 21.6771H66.6425C66.6425 20.1891 65.6825 19.1971 64.2265 19.1971ZM72.1375 26.3971C70.4895 26.3971 69.5135 25.4691 69.5135 24.1091C69.5135 22.6851 70.6015 21.7891 72.4095 21.6451L74.9695 21.4371V21.1811C74.9695 19.6611 74.0575 19.1811 72.9215 19.1811C71.5775 19.1811 70.7775 19.7891 70.7775 20.8291H69.7695C69.7695 19.2611 71.0495 18.2531 72.9535 18.2531C74.7455 18.2531 76.0575 19.1491 76.0575 21.1971V26.2051H75.1295L74.9855 24.8451C74.5055 25.8211 73.4495 26.3971 72.1375 26.3971ZM72.3935 25.5011C74.0255 25.5011 74.9695 24.3651 74.9695 22.6851V22.2691L72.6815 22.4451C71.2255 22.5731 70.6335 23.2131 70.6335 24.0771C70.6335 25.0211 71.3375 25.5011 72.3935 25.5011ZM82.8008 18.3651V19.3571H82.1928C80.7688 19.3571 79.8568 20.3171 79.8568 21.7891V26.2051H78.7528V18.4611H79.7928L79.8728 19.6611C80.1768 18.8291 80.9928 18.2851 82.0808 18.2851C82.3208 18.2851 82.5288 18.3011 82.8008 18.3651ZM83.9076 22.3491C83.9076 19.9171 85.3956 18.2531 87.6516 18.2531C89.4436 18.2531 90.7556 19.2931 91.0596 20.8931H89.9556C89.6676 19.8211 88.7396 19.2291 87.6676 19.2291C86.0996 19.2291 84.9956 20.4291 84.9956 22.3331C84.9956 24.1731 86.0196 25.4051 87.5876 25.4051C88.7396 25.4051 89.6676 24.7651 89.9716 23.7731H91.0916C90.7236 25.3571 89.3476 26.3971 87.5876 26.3971C85.3956 26.3971 83.9076 24.7811 83.9076 22.3491ZM94.3481 26.1891H93.2441V14.5411H94.3481V19.8051C94.8441 18.8771 95.7881 18.2531 97.0841 18.2531C99.1161 18.2531 100.028 19.5171 100.028 21.4691V26.2051H98.9241V21.7091C98.9241 19.9011 98.0761 19.2611 96.8761 19.2611C95.2121 19.2611 94.3481 20.4931 94.3481 21.9811V26.1891Z" fill="#898989"/>
</svg>
